#N canvas 1015 572 769 437 10;
#X obj 221 225 osc~;
#X obj 286 234 osc~;
#X obj 288 356 dac~;
#X obj 345 233 osc~;
#X obj 394 229 osc~;
#X obj 448 226 osc~;
#X obj 287 297 *~ 0.1;
#X floatatom 46 35 5 0 0 0 - - -, f 5;
#X floatatom 56 45 5 0 0 0 - - -, f 5;
#X floatatom 66 55 5 0 0 0 - - -, f 5;
#X floatatom 107 -3 5 0 0 0 - - -, f 5;
#X msg 508 82 1;
#X obj 510 121 print;
#X msg 206 61 netreceive 8888;
#X obj 206 124 print l;
#X obj 358 66 netreceive 9999 1;
#X connect 0 0 6 0;
#X connect 1 0 6 0;
#X connect 3 0 6 0;
#X connect 4 0 6 0;
#X connect 5 0 6 0;
#X connect 6 0 2 0;
#X connect 6 0 2 1;
#X connect 11 0 12 0;
#X connect 13 0 14 0;
#X connect 15 0 14 0;
